# xmcd
#
# Track frame offsets: 
#        150
#        55451
#        98917
#        145496
#        170666
#        200020
#        232040
#        263971
#        283167
#
# Disc length: 3986 seconds
#
# Revision: 1
# Processed by: cddbd v1.5.2PL0 Copyright (c) Steve Scherf et al.
# Submitted via: ExactAudioCopy v0.95a5
#
DISCID=930f9009
DTITLE=Ivo Perelman - Black On White
DYEAR=2004
DGENRE=Free Improvisation
TTITLE0=Black on white
TTITLE1=Naked seeds
TTITLE2=Cumplicidade
TTITLE3=Cores
TTITLE4=Transparencia
TTITLE5=Srilhante
TTITLE6=Areia
TTITLE7=Olhos
TTITLE8=Sementes nuas
EXTD=YEAR: 2004
EXTT0=
EXTT1=
EXTT2=
EXTT3=
EXTT4=
EXTT5=
EXTT6=
EXTT7=
EXTT8=
PLAYORDER=
